<svg width="28" height="20" viewBox="0 0 28 20" fill="none" xmlns="http://www.w3.org/2000/svg">
<path fill-rule="evenodd" clip-rule="evenodd" d="M19 0C16.593 0 14.568 1.726 14.102 4H1C0.734784 4 0.48043 4.10536 0.292893 4.29289C0.105357 4.48043 0 4.73478 0 5C0 5.26522 0.105357 5.51957 0.292893 5.70711C0.48043 5.89464 0.734784 6 1 6H14.102C14.568 8.275 16.592 10 19 10C21.408 10 23.432 8.275 23.898 6H27C27.2652 6 27.5196 5.89464 27.7071 5.70711C27.8946 5.51957 28 5.26522 28 5C28 4.73478 27.8946 4.48043 27.7071 4.29289C27.5196 4.10536 27.2652 4 27 4H23.898C23.432 1.726 21.408 0 19 0ZM19 2C20.669 2 22 3.331 22 5C22 6.669 20.669 8 19 8C17.331 8 16 6.669 16 5C16 3.331 17.331 2 19 2ZM9 10C6.593 10 4.568 11.726 4.102 14H1C0.734784 14 0.48043 14.1054 0.292893 14.2929C0.105357 14.4804 0 14.7348 0 15C0 15.2652 0.105357 15.5196 0.292893 15.7071C0.48043 15.8946 0.734784 16 1 16H4.102C4.568 18.275 6.592 20 9 20C11.408 20 13.432 18.275 13.898 16H27C27.2652 16 27.5196 15.8946 27.7071 15.7071C27.8946 15.5196 28 15.2652 28 15C28 14.7348 27.8946 14.4804 27.7071 14.2929C27.5196 14.1054 27.2652 14 27 14H13.898C13.432 11.726 11.408 10 9 10ZM9 12C10.669 12 12 13.331 12 15C12 16.669 10.669 18 9 18C7.331 18 6 16.669 6 15C6 13.331 7.331 12 9 12Z" fill="#228CDB"/>
</svg>
